<svg width="44" height="44" viewBox="0 0 44 44" fill="none" xmlns="http://www.w3.org/2000/svg">
<path d="M0 9H44V39H0V9Z" fill="#2A76DF"/>
<path d="M20 38.5C20 37.6716 20.6716 37 21.5 37H23.5C24.3284 37 25 37.6716 25 38.5C25 39.3284 24.3284 40 23.5 40H21.5C20.6716 40 20 39.3284 20 38.5Z" fill="#2A76DF"/>
<path d="M3 4H18C20.7614 4 23 6.23858 23 9V38C23 38 18 37 14 36.5C9.733 35.9666 3 36 3 36V4Z" fill="white"/>
<path fill-rule="evenodd" clip-rule="evenodd" d="M18 5H4V35.0023C4.04099 35.0025 4.08305 35.0028 4.12616 35.0031C4.82881 35.0084 5.81023 35.021 6.92618 35.0503C9.14883 35.1088 11.9395 35.2347 14.124 35.5077C16.1496 35.7609 18.4194 36.1394 20.1758 36.4531C20.8806 36.5789 21.5048 36.6947 22 36.7883V9C22 6.79086 20.2091 5 18 5ZM23 9C23 6.23858 20.7614 4 18 4H3V36C3 36 3.18742 35.9991 3.51953 36C5.17802 36.0046 10.4449 36.0556 14 36.5C16.9056 36.8632 20.3388 37.4902 22 37.8061C22.6257 37.9251 23 38 23 38V9Z" fill="#18253F"/>
<path d="M42 4H27C24.2386 4 22 6.23858 22 9V38C22 38 27 37 31 36.5C35.267 35.9666 42 36 42 36V4Z" fill="white"/>
<path fill-rule="evenodd" clip-rule="evenodd" d="M27 5H41V35.0023C40.959 35.0025 40.9169 35.0028 40.8738 35.0031C40.1712 35.0084 39.1898 35.021 38.0738 35.0503C35.8512 35.1088 33.0605 35.2347 30.876 35.5077C28.8504 35.7609 26.5806 36.1394 24.8242 36.4531C24.1194 36.5789 23.4952 36.6947 23 36.7883V9C23 6.79086 24.7909 5 27 5ZM22 9C22 6.23858 24.2386 4 27 4H42V36C42 36 41.8126 35.9991 41.4805 36C39.822 36.0046 34.5551 36.0556 31 36.5C28.0944 36.8632 24.6612 37.4902 23 37.8061C22.3743 37.9251 22 38 22 38V9Z" fill="#18253F"/>
<path d="M32.6479 15.1832C32.3212 15.1832 32.0926 15.1179 31.9619 14.9872C31.8312 14.8472 31.7659 14.6746 31.7659 14.4692V14.2452C31.7659 14.0399 31.8312 13.8719 31.9619 13.7412C32.0926 13.6012 32.3212 13.5312 32.6479 13.5312C32.9746 13.5312 33.2032 13.6012 33.3339 13.7412C33.4646 13.8719 33.5299 14.0399 33.5299 14.2452V14.4692C33.5299 14.6746 33.4646 14.8472 33.3339 14.9872C33.2032 15.1179 32.9746 15.1832 32.6479 15.1832ZM29.4839 23.0513H32.0879V17.7312H29.4839V16.7792H33.2079V23.0513H35.6439V24.0033H29.4839V23.0513Z" fill="black"/>
<path fill-rule="evenodd" clip-rule="evenodd" d="M6.5 12C6.5 11.7239 6.72386 11.5 7 11.5H18C18.2761 11.5 18.5 11.7239 18.5 12C18.5 12.2761 18.2761 12.5 18 12.5H7C6.72386 12.5 6.5 12.2761 6.5 12Z" fill="black"/>
<path fill-rule="evenodd" clip-rule="evenodd" d="M6.5 16C6.5 15.7239 6.72386 15.5 7 15.5H18C18.2761 15.5 18.5 15.7239 18.5 16C18.5 16.2761 18.2761 16.5 18 16.5H7C6.72386 16.5 6.5 16.2761 6.5 16Z" fill="black"/>
<path fill-rule="evenodd" clip-rule="evenodd" d="M6.5 20C6.5 19.7239 6.72386 19.5 7 19.5H18C18.2761 19.5 18.5 19.7239 18.5 20C18.5 20.2761 18.2761 20.5 18 20.5H7C6.72386 20.5 6.5 20.2761 6.5 20Z" fill="black"/>
<path fill-rule="evenodd" clip-rule="evenodd" d="M6.5 28C6.5 27.7239 6.72386 27.5 7 27.5H18C18.2761 27.5 18.5 27.7239 18.5 28C18.5 28.2761 18.2761 28.5 18 28.5H7C6.72386 28.5 6.5 28.2761 6.5 28Z" fill="black"/>
<path fill-rule="evenodd" clip-rule="evenodd" d="M6.5 24C6.5 23.7239 6.72386 23.5 7 23.5H18C18.2761 23.5 18.5 23.7239 18.5 24C18.5 24.2761 18.2761 24.5 18 24.5H7C6.72386 24.5 6.5 24.2761 6.5 24Z" fill="black"/>
</svg>
