<svg width="32" height="32" viewBox="0 0 32 32" fill="none" xmlns="http://www.w3.org/2000/svg">
<path d="M14.1045 7.20332C14.0145 7.08776 13.9184 7.02332 13.8022 7.02332C13.7189 7.02998 13.6417 7.05554 13.5711 7.10054C12.7167 7.76887 11.5534 10.6028 10.5961 14.3422L11.4445 14.3489C13.115 14.3683 14.8439 14.3872 16.5467 14.4133C16.0967 12.7039 15.6728 11.2389 15.2806 10.0505C14.7084 8.32109 14.3228 7.54387 14.1045 7.20332Z" fill="#1E61F0"/>
<path d="M16 0C7.16444 0 0 7.16444 0 16C0 24.8356 7.16444 32 16 32C24.8356 32 32 24.8356 32 16C32 7.16444 24.8356 0 16 0ZM27.8106 15.8072C27.7656 15.9872 27.6561 16.1606 27.5022 16.2889C27.4828 16.3017 27.4639 16.3144 27.4444 16.3272L27.425 16.34L27.3867 16.3656L27.3544 16.385C27.2322 16.4494 27.0972 16.4811 26.9561 16.4811H19.3733C19.4311 16.7317 19.5017 17.0211 19.5728 17.3294C19.9906 19.1222 21.0894 23.89 22.265 23.89H22.2906H22.3033H22.3289C23.2411 23.89 23.7106 22.5661 24.7383 19.6683L24.7511 19.6361C24.9183 19.1733 25.1044 18.6467 25.3039 18.0872L25.3556 17.9461C25.4328 17.76 25.6444 17.6633 25.8311 17.7406C25.9661 17.7922 26.0622 17.9267 26.0622 18.0744C26.0622 18.1128 26.0556 18.145 26.0494 18.1772L26.0044 18.3183C25.895 18.6656 25.7861 19.1344 25.6511 19.6806C25.0406 22.2122 24.1156 26.0356 21.7506 26.0356H21.7311C20.2017 26.0228 19.2894 23.5811 18.8972 22.5333C18.1644 20.58 17.6122 18.5044 17.0789 16.4867H10.1139L8.66833 21.1194L8.64889 21.1C8.43056 21.4406 7.97444 21.5433 7.63389 21.325C7.42167 21.19 7.29333 20.9589 7.29333 20.7083V20.6828L7.38333 20.1561C7.58278 18.9672 7.82667 17.7272 8.09667 16.4806H5.14111L5.12833 16.4678C4.52444 16.3778 4.10667 15.8122 4.19667 15.2083C4.26722 14.7394 4.62722 14.3667 5.09 14.2828C5.20556 14.27 5.32111 14.2633 5.43722 14.27H5.57833C6.51 14.2828 7.49944 14.3022 8.59222 14.315C10.1278 8.06945 11.9078 4.895 13.8872 4.88833C16.0078 4.88833 17.5822 9.71389 18.8417 14.4367L18.8483 14.4561C21.4317 14.5078 24.1944 14.5844 26.8739 14.7772L26.9894 14.79C27.0344 14.79 27.0728 14.7967 27.1178 14.8028H27.1306L27.1433 14.8094H27.15C27.605 14.9011 27.9067 15.3511 27.8106 15.8072Z" fill="#1E61F0"/>
</svg>
